<svg id="svg" version="1.1" width="400" height="400" viewBox="0 0 400 400" xmlns="http://www.w3.org/2000/svg" xmlns:xlink="http://www.w3.org/1999/xlink" ><g id="svgg"><path id="path0" d="M197.251 53.079 C 191.261 54.824,185.431 57.921,180.810 61.812 C 177.959 64.212,93.983 148.397,92.815 150.025 C 85.313 160.486,85.134 174.185,92.363 184.608 C 93.843 186.741,176.856 269.799,180.410 272.702 C 190.663 281.077,199.082 283.114,221.889 282.738 C 232.490 282.563,242.389 278.881,250.386 272.138 C 252.782 270.118,336.773 185.866,337.976 184.276 C 344.545 175.595,345.708 163.522,340.930 153.624 C 338.703 149.010,341.552 152.002,295.476 105.886 C 247.840 58.208,250.184 60.446,244.478 57.188 C 241.599 55.544,241.674 55.562,241.900 56.565 C 242.614 59.742,242.679 62.119,242.674 84.856 L 242.669 107.246 272.409 136.867 L 302.149 166.488 263.568 205.055 C 222.541 246.067,224.085 244.587,220.390 246.432 C 215.931 248.658,214.435 248.677,209.984 246.565 C 205.925 244.639,207.881 246.501,166.849 205.503 L 128.900 167.586 166.007 130.384 L 203.114 93.182 203.049 77.126 L 202.984 61.069 202.476 59.149 C 201.844 56.759,200.612 53.613,200.035 52.919 L 199.600 52.395 197.251 53.079 " stroke="none" fill="#2ba1e2" fill-rule="evenodd"></path><path id="path1" d="M68.566 10.009 C 54.648 11.347,43.477 22.448,41.986 36.424 C 41.707 39.042,41.703 153.105,41.982 157.021 C 42.649 166.386,45.842 174.761,51.544 182.109 C 53.397 184.496,67.028 198.103,69.335 199.869 C 74.086 203.505,79.854 206.331,85.557 207.817 C 90.511 209.107,91.162 209.157,104.348 209.242 L 116.442 209.320 105.039 197.864 C 92.663 185.428,92.046 184.718,90.043 180.610 C 88.337 177.110,87.234 173.101,87.133 170.029 C 87.061 167.862,87.047 167.833,85.756 167.216 C 84.419 166.577,83.304 164.612,82.288 161.101 C 81.212 157.387,81.259 160.063,81.259 102.649 L 81.259 49.275 135.732 49.275 C 194.152 49.275,190.943 49.220,194.646 50.293 C 199.801 51.787,200.857 52.976,202.445 59.070 L 202.966 61.069 203.108 79.360 C 203.186 89.420,203.261 113.911,203.274 133.783 L 203.298 169.915 167.267 169.915 L 131.235 169.915 150.925 189.605 L 170.614 209.295 191.504 209.290 C 212.470 209.284,216.048 209.193,218.997 208.593 C 231.666 206.014,241.102 195.512,242.477 182.460 C 242.836 179.053,242.739 62.985,242.375 59.869 C 240.949 47.666,236.957 40.603,224.409 28.078 C 211.992 15.685,206.310 12.366,193.903 10.260 C 191.621 9.873,72.466 9.635,68.566 10.009 M153.323 335.154 C 126.931 339.922,121.422 373.830,145.111 385.702 C 156.319 391.319,171.659 387.603,178.407 377.636 L 178.999 376.762 178.205 376.090 C 177.151 375.198,177.201 375.179,175.712 377.038 C 161.526 394.750,132.641 384.472,132.657 361.719 C 132.674 338.909,161.825 328.544,175.748 346.398 C 176.317 347.129,176.852 347.806,176.936 347.904 C 177.020 348.003,177.539 347.793,178.098 347.435 L 179.107 346.787 178.459 345.875 C 175.014 341.025,169.232 337.222,162.838 335.601 C 161.267 335.203,154.749 334.896,153.323 335.154 M63.494 337.332 C 43.300 340.636,34.890 365.146,48.915 379.825 C 64.017 395.632,90.476 386.354,92.544 364.526 C 94.062 348.506,79.353 334.737,63.494 337.332 M103.148 361.719 L 103.148 386.407 104.348 386.407 L 105.547 386.407 105.547 361.719 L 105.547 337.031 104.348 337.031 L 103.148 337.031 103.148 361.719 M107.346 361.719 L 107.346 386.407 117.041 386.407 L 126.737 386.407 126.737 385.107 L 126.737 383.808 118.241 383.808 L 109.745 383.808 109.745 382.909 L 109.745 382.009 118.241 382.009 L 126.737 382.009 126.737 380.810 L 126.737 379.610 118.241 379.610 L 109.745 379.610 109.745 358.321 L 109.745 337.031 108.546 337.031 L 107.346 337.031 107.346 361.719 M181.143 337.217 C 181.179 337.319,185.571 348.429,190.902 361.905 L 200.595 386.407 201.815 386.407 L 203.036 386.407 212.687 361.969 C 217.995 348.528,222.382 337.419,222.435 337.281 C 222.506 337.097,222.192 337.031,221.242 337.031 L 219.952 337.031 211.094 359.470 C 206.223 371.812,202.134 382.116,202.008 382.368 C 201.804 382.775,201.086 381.076,195.714 367.476 C 192.378 359.032,188.306 348.728,186.663 344.578 L 183.677 337.031 182.377 337.031 C 181.661 337.031,181.106 337.115,181.143 337.217 M185.797 337.381 C 187.296 341.351,202.022 378.411,202.100 378.411 C 202.236 378.411,203.365 375.844,203.364 375.536 C 203.364 375.413,199.960 366.699,195.800 356.172 L 188.236 337.031 186.950 337.031 C 185.809 337.031,185.679 337.071,185.797 337.381 M224.347 337.381 C 224.276 337.574,219.975 348.481,214.787 361.620 C 209.600 374.758,205.292 385.710,205.213 385.957 C 205.010 386.596,207.349 386.655,207.689 386.019 C 207.803 385.806,212.179 374.809,217.412 361.582 C 222.646 348.354,226.973 337.419,227.029 337.281 C 227.103 337.096,226.784 337.031,225.802 337.031 C 224.721 337.031,224.452 337.096,224.347 337.381 M246.077 337.586 C 246.077 337.681,250.383 348.637,255.646 361.933 L 265.214 386.107 266.615 386.165 L 268.016 386.223 268.363 385.366 C 269.519 382.511,287.256 337.575,287.256 337.503 C 287.256 337.454,286.606 337.440,285.812 337.473 L 284.367 337.531 275.639 359.612 C 270.839 371.756,266.834 381.809,266.739 381.950 C 266.626 382.120,263.548 374.561,257.750 359.870 L 248.933 337.531 247.505 337.473 C 246.720 337.440,246.077 337.491,246.077 337.586 M251.274 337.561 C 251.274 337.776,266.712 376.882,266.871 377.071 C 266.945 377.159,267.341 376.480,267.750 375.562 L 268.493 373.894 261.308 355.713 L 254.123 337.531 252.699 337.473 C 251.915 337.440,251.274 337.480,251.274 337.561 M289.443 337.881 C 289.331 338.128,284.991 349.080,279.798 362.219 L 270.356 386.107 271.734 386.166 C 272.492 386.199,273.154 386.183,273.206 386.131 C 273.302 386.035,292.126 338.550,292.357 337.822 C 292.561 337.177,289.735 337.235,289.443 337.881 M306.847 361.819 L 306.847 386.207 308.245 386.207 L 309.643 386.207 309.694 364.316 L 309.745 342.426 322.417 364.316 L 335.089 386.207 336.664 386.207 L 338.239 386.207 337.685 385.243 C 337.381 384.713,331.059 373.742,323.638 360.863 L 310.145 337.447 308.496 337.439 L 306.847 337.431 306.847 361.819 M312.785 338.388 C 313.092 338.924,319.415 349.898,326.837 362.776 L 340.330 386.191 341.879 386.199 L 343.428 386.207 343.428 361.819 L 343.428 337.431 342.030 337.431 L 340.631 337.431 340.581 359.160 L 340.530 380.888 328.003 359.210 L 315.475 337.531 313.851 337.473 L 312.226 337.415 312.785 338.388 M335.832 354.052 L 335.832 370.672 337.161 372.942 C 337.892 374.191,338.522 375.212,338.560 375.212 C 338.599 375.212,338.631 366.712,338.631 356.322 L 338.631 337.431 337.231 337.431 L 335.832 337.431 335.832 354.052 M71.682 339.731 C 86.652 342.559,94.721 359.011,87.859 372.714 C 79.198 390.009,54.316 389.569,46.300 371.978 C 38.556 354.985,53.297 336.257,71.682 339.731 M152.855 339.537 C 135.312 342.849,128.298 364.217,140.527 377.094 C 149.954 387.020,165.903 386.432,174.348 375.846 C 175.660 374.201,175.654 374.326,174.470 373.476 L 173.595 372.848 172.505 374.247 C 160.370 389.811,134.496 379.102,136.924 359.520 C 139.170 341.408,161.521 335.257,172.937 349.610 L 173.640 350.494 174.580 349.848 L 175.520 349.201 175.166 348.576 C 173.871 346.289,168.968 342.354,165.739 341.010 C 161.943 339.429,156.636 338.823,152.855 339.537 M64.637 341.227 C 45.792 343.895,39.279 367.923,54.317 379.304 C 68.476 390.019,88.572 380.065,88.553 362.347 C 88.539 349.604,77.061 339.467,64.637 341.227 M72.364 344.015 C 89.658 349.008,91.235 372.796,74.746 379.941 C 59.855 386.394,44.034 371.778,49.254 356.390 C 52.504 346.810,62.852 341.268,72.364 344.015 M311.847 367.066 L 311.844 386.207 313.143 386.207 L 314.443 386.207 314.443 369.424 L 314.443 352.642 313.146 350.284 L 311.850 347.926 311.847 367.066 M74.413 372.327 C 73.946 372.607,73.563 372.891,73.563 372.957 C 73.563 373.197,76.260 377.411,76.413 377.411 C 76.680 377.411,78.177 376.359,78.117 376.213 C 77.954 375.815,75.447 371.815,75.362 371.817 C 75.307 371.817,74.880 372.047,74.413 372.327 M70.919 374.439 L 69.988 375.045 71.113 376.878 C 71.732 377.886,72.255 378.737,72.277 378.770 C 72.336 378.860,74.243 378.374,74.411 378.226 C 74.523 378.127,72.327 374.310,71.928 373.910 C 71.886 373.868,71.432 374.106,70.919 374.439 M233.765 379.777 C 231.058 381.478,231.575 385.429,234.605 386.192 C 238.304 387.123,240.501 382.234,237.417 379.932 C 236.628 379.343,234.593 379.256,233.765 379.777 M81.409 384.566 C 80.341 385.249,80.304 385.046,82.001 387.821 L 83.442 390.178 83.963 389.870 C 84.250 389.701,84.678 389.415,84.915 389.234 L 85.345 388.906 83.932 386.607 C 83.155 385.342,82.460 384.244,82.388 384.166 C 82.315 384.089,81.875 384.269,81.409 384.566 M77.861 386.417 C 77.421 386.625,76.983 386.824,76.886 386.859 C 76.723 386.919,79.321 391.373,79.869 391.975 C 80.320 392.469,82.028 391.305,81.706 390.724 C 81.003 389.454,78.847 386.017,78.761 386.028 C 78.706 386.034,78.301 386.209,77.861 386.417 " stroke="none" fill="#1bca3d" fill-rule="evenodd"></path><path id="path2" d="M0.000 200.000 L 0.000 400.000 200.000 400.000 L 400.000 400.000 400.000 200.000 L 400.000 0.000 200.000 0.000 L 0.000 0.000 0.000 200.000 M194.700 10.256 C 206.818 12.527,212.402 15.877,224.911 28.386 C 235.556 39.030,239.447 45.141,241.490 54.423 L 241.743 55.572 243.636 56.593 C 245.859 57.791,248.726 59.705,250.856 61.412 C 253.585 63.600,337.194 147.401,338.493 149.251 C 345.774 159.616,345.774 173.421,338.493 183.783 C 337.213 185.604,253.496 269.624,250.175 272.421 C 243.519 278.025,234.884 281.684,226.045 282.647 C 223.579 282.916,206.350 282.925,204.093 282.659 C 195.258 281.618,187.935 278.662,180.910 273.302 C 179.827 272.475,167.828 260.634,147.824 240.650 L 116.438 209.295 105.287 209.295 C 87.920 209.295,81.863 208.047,73.260 202.695 C 68.965 200.022,56.612 188.485,51.988 182.826 C 46.929 176.634,43.525 168.960,42.229 160.820 C 41.681 157.378,41.688 36.392,42.236 33.783 C 44.943 20.905,54.952 11.664,68.066 9.931 C 70.488 9.612,192.935 9.926,194.700 10.256 M81.415 103.598 C 81.483 163.342,81.374 158.210,82.660 162.043 C 83.762 165.324,84.450 166.457,85.738 167.107 L 86.898 167.692 87.031 165.555 C 87.358 160.287,89.274 154.858,92.372 150.425 C 93.779 148.411,177.018 64.843,180.710 61.738 C 185.527 57.686,193.663 53.501,198.353 52.663 C 198.767 52.589,199.148 52.459,199.200 52.374 C 199.317 52.184,196.505 50.967,194.612 50.388 C 191.134 49.324,194.113 49.375,135.603 49.375 L 81.354 49.375 81.415 103.598 M166.020 130.531 L 129.043 167.510 130.132 168.612 L 131.221 169.715 167.160 169.715 L 203.098 169.715 203.098 131.634 C 203.098 110.690,203.076 93.553,203.048 93.553 C 203.021 93.553,186.358 110.193,166.020 130.531 M242.628 145.631 L 242.569 184.008 242.042 186.107 C 239.083 197.891,230.875 205.968,219.045 208.741 C 217.214 209.170,216.907 209.177,194.049 209.285 L 170.907 209.395 187.952 226.399 C 200.698 239.115,205.382 243.664,206.521 244.434 C 208.463 245.749,211.336 247.150,213.432 247.804 L 215.071 248.316 216.945 247.691 C 219.086 246.978,221.279 245.901,223.354 244.544 C 224.469 243.814,233.361 235.040,263.368 205.062 L 301.949 166.518 272.318 136.886 L 242.687 107.255 242.628 145.631 M162.419 335.400 C 168.513 336.718,173.959 340.073,177.807 344.882 C 178.524 345.778,179.109 346.605,179.107 346.719 C 179.102 347.022,177.090 348.290,176.928 348.093 C 176.852 348.001,176.406 347.414,175.937 346.789 C 169.274 337.916,156.338 334.950,146.227 339.977 C 127.666 349.206,128.424 375.907,147.477 384.001 C 157.806 388.390,169.972 384.935,176.640 375.720 L 177.068 375.128 177.885 375.694 C 179.256 376.645,179.262 376.674,178.297 377.961 C 166.346 393.903,141.197 391.276,132.648 373.193 C 123.204 353.217,140.903 330.748,162.419 335.400 M71.777 337.346 C 92.018 341.185,99.778 365.882,85.283 380.328 C 69.255 396.303,41.960 385.097,41.901 362.519 C 41.861 346.654,56.375 334.424,71.777 337.346 M105.547 361.719 L 105.547 386.407 104.248 386.407 L 102.949 386.407 102.949 361.719 L 102.949 337.031 104.248 337.031 L 105.547 337.031 105.547 361.719 M109.945 358.321 L 109.945 379.610 118.441 379.610 L 126.937 379.610 126.937 380.910 L 126.937 382.209 118.441 382.209 L 109.945 382.209 109.945 383.008 L 109.945 383.808 118.441 383.808 L 126.937 383.808 126.937 385.107 L 126.937 386.407 117.041 386.407 L 107.146 386.407 107.146 361.719 L 107.146 337.031 108.546 337.031 L 109.945 337.031 109.945 358.321 M190.863 354.873 C 194.740 364.685,198.791 374.940,199.865 377.660 L 201.817 382.607 210.804 359.823 L 219.790 337.039 221.224 337.035 L 222.658 337.031 221.924 338.907 C 221.520 339.938,217.141 351.049,212.194 363.597 L 203.198 386.411 201.811 386.359 L 200.425 386.307 191.766 364.418 C 187.004 352.379,182.621 341.292,182.027 339.780 L 180.947 337.031 182.380 337.031 L 183.813 337.031 190.863 354.873 M195.902 356.048 C 204.661 378.254,203.682 375.298,202.880 377.125 C 202.230 378.602,202.032 378.838,201.843 378.361 C 201.788 378.223,198.261 369.295,194.006 358.521 C 189.750 347.746,186.098 338.503,185.891 337.981 L 185.513 337.031 186.959 337.037 L 188.406 337.043 195.902 356.048 M225.370 341.779 C 224.339 344.390,219.955 355.477,215.626 366.417 L 207.756 386.307 206.307 386.366 C 205.489 386.399,204.888 386.346,204.928 386.242 C 204.966 386.142,209.357 375.028,214.684 361.546 L 224.371 337.031 225.808 337.031 L 227.244 337.031 225.370 341.779 M257.771 359.525 C 262.609 371.781,266.612 381.807,266.667 381.804 C 266.722 381.802,270.725 371.772,275.562 359.516 L 284.358 337.232 285.928 337.231 C 287.340 337.231,287.486 337.267,287.370 337.581 C 287.299 337.774,282.951 348.793,277.709 362.069 L 268.178 386.207 266.654 386.207 L 265.130 386.207 255.576 362.085 C 250.321 348.818,245.979 337.799,245.926 337.597 C 245.839 337.265,245.976 337.232,247.403 337.236 L 248.976 337.241 257.771 359.525 M261.396 355.607 L 268.621 373.883 268.244 374.748 C 268.036 375.223,267.683 376.032,267.459 376.545 C 267.220 377.093,266.980 377.402,266.877 377.294 C 266.714 377.125,251.346 338.375,251.123 337.572 C 251.032 337.246,251.165 337.219,252.597 337.272 L 254.170 337.331 261.396 355.607 M292.574 337.581 C 292.507 337.774,288.157 348.793,282.907 362.069 L 273.363 386.206 271.793 386.207 C 270.381 386.207,270.235 386.171,270.351 385.857 C 270.421 385.665,274.769 374.645,280.011 361.369 L 289.543 337.231 291.120 337.231 C 292.535 337.231,292.684 337.267,292.574 337.581 M324.188 361.603 C 331.912 375.001,338.231 386.018,338.231 386.085 C 338.231 386.152,337.489 386.205,336.582 386.202 L 334.933 386.197 322.439 364.593 L 309.945 342.990 309.894 364.598 L 309.843 386.207 308.345 386.207 L 306.847 386.207 306.847 361.719 L 306.847 337.231 308.496 337.238 L 310.145 337.244 324.188 361.603 M328.009 358.997 L 340.530 380.663 340.581 358.947 L 340.631 337.231 342.130 337.231 L 343.628 337.231 343.628 361.727 L 343.628 386.222 341.910 386.165 L 340.192 386.107 326.402 362.219 C 318.817 349.080,312.480 338.080,312.319 337.773 L 312.026 337.216 313.757 337.273 L 315.488 337.331 328.009 358.997 M338.831 356.434 C 338.831 367.730,338.757 375.590,338.651 375.525 C 338.552 375.464,337.878 374.391,337.152 373.141 L 335.832 370.869 335.832 354.050 L 335.832 337.231 337.331 337.231 L 338.831 337.231 338.831 356.434 M161.715 339.619 C 166.623 340.690,171.249 343.543,174.363 347.420 C 175.968 349.418,175.940 349.176,174.656 349.973 L 173.613 350.621 173.013 349.876 C 161.039 334.997,137.856 342.005,136.981 360.767 C 136.097 379.722,160.591 389.186,172.210 374.379 C 173.628 372.571,173.469 372.624,174.706 373.547 L 175.688 374.281 175.051 375.180 C 168.800 383.994,155.911 386.857,146.157 381.598 C 131.201 373.533,130.221 352.311,144.369 342.891 C 149.494 339.479,155.706 338.307,161.715 339.619 M63.568 339.712 C 47.612 342.565,39.394 360.103,47.491 374.021 C 56.596 389.670,79.670 388.922,87.803 372.714 C 96.158 356.066,81.759 336.459,63.568 339.712 M72.864 341.695 C 91.108 346.792,94.439 371.293,78.189 380.859 C 63.192 389.687,44.444 377.825,45.985 360.485 C 47.154 347.325,60.249 338.170,72.864 341.695 M64.116 343.730 C 46.332 347.108,42.531 370.726,58.422 379.105 C 73.416 387.012,90.471 372.753,85.316 356.622 C 82.476 347.732,73.092 342.026,64.116 343.730 M313.231 350.202 L 314.643 352.778 314.643 369.492 L 314.643 386.207 313.143 386.207 L 311.644 386.207 311.644 366.917 C 311.644 356.307,311.684 347.626,311.732 347.626 C 311.780 347.626,312.454 348.785,313.231 350.202 M76.464 373.259 C 77.012 374.164,77.663 375.234,77.910 375.638 L 78.359 376.371 77.349 377.019 C 76.785 377.381,76.269 377.589,76.182 377.490 C 75.591 376.815,73.362 372.938,73.496 372.818 C 73.786 372.560,75.251 371.614,75.361 371.614 C 75.419 371.614,75.915 372.354,76.464 373.259 M73.363 375.944 C 74.078 377.110,74.689 378.130,74.721 378.211 C 74.784 378.373,73.227 378.811,72.587 378.811 C 72.229 378.811,69.962 375.569,69.966 375.065 C 69.968 374.878,71.586 373.818,71.864 373.822 C 71.974 373.823,72.649 374.778,73.363 375.944 M236.831 379.518 C 239.406 380.594,239.836 384.001,237.610 385.698 C 235.292 387.467,231.884 385.758,231.884 382.828 C 231.884 380.246,234.456 378.526,236.831 379.518 M84.020 386.546 L 85.525 388.984 84.528 389.624 C 83.680 390.168,83.492 390.222,83.266 389.984 C 82.826 389.522,80.344 385.355,80.404 385.180 C 80.498 384.909,82.250 383.852,82.387 383.984 C 82.458 384.052,83.193 385.205,84.020 386.546 M80.578 388.635 L 82.131 391.162 81.116 391.793 C 79.913 392.541,80.147 392.723,78.160 389.488 L 76.575 386.907 77.518 386.457 C 78.846 385.823,78.854 385.829,80.578 388.635 " stroke="none" fill="#fbfbfb" fill-rule="evenodd"></path><path id="path3" d="M108.896 49.325 C 123.546 49.354,147.519 49.354,162.169 49.325 C 176.819 49.297,164.833 49.274,135.532 49.274 C 106.232 49.274,94.245 49.297,108.896 49.325 M81.257 78.961 C 81.257 95.287,81.280 101.967,81.309 93.803 C 81.338 85.640,81.338 72.281,81.309 64.118 C 81.280 55.955,81.257 62.634,81.257 78.961 M64.768 196.002 C 65.365 196.607,65.898 197.101,65.953 197.101 C 66.008 197.101,65.565 196.607,64.968 196.002 C 64.370 195.397,63.837 194.903,63.782 194.903 C 63.727 194.903,64.170 195.397,64.768 196.002 M107.243 361.719 C 107.243 375.352,107.267 380.900,107.296 374.047 C 107.325 367.195,107.325 356.040,107.296 349.260 C 107.267 342.479,107.243 348.086,107.243 361.719 M109.842 358.321 C 109.842 370.085,109.866 374.868,109.895 368.950 C 109.924 363.032,109.924 353.407,109.895 347.561 C 109.866 341.715,109.842 346.557,109.842 358.321 M175.712 342.729 C 176.085 343.113,176.435 343.428,176.490 343.428 C 176.545 343.428,176.285 343.113,175.912 342.729 C 175.539 342.344,175.189 342.029,175.134 342.029 C 175.079 342.029,175.339 342.344,175.712 342.729 M82.359 347.326 C 82.732 347.711,83.082 348.026,83.137 348.026 C 83.192 348.026,82.932 347.711,82.559 347.326 C 82.186 346.942,81.836 346.627,81.781 346.627 C 81.726 346.627,81.986 346.942,82.359 347.326 M170.915 347.526 C 171.288 347.911,171.638 348.226,171.693 348.226 C 171.748 348.226,171.487 347.911,171.114 347.526 C 170.741 347.141,170.391 346.827,170.336 346.827 C 170.281 346.827,170.542 347.141,170.915 347.526 M53.762 348.976 L 53.073 349.725 53.823 349.036 C 54.521 348.395,54.665 348.226,54.512 348.226 C 54.479 348.226,54.141 348.563,53.762 348.976 M109.800 383.008 C 109.800 383.503,109.839 383.706,109.886 383.458 C 109.934 383.211,109.934 382.806,109.886 382.559 C 109.839 382.311,109.800 382.514,109.800 383.008 " stroke="none" fill="#99e294" fill-rule="evenodd"></path><path id="path4" d="M81.256 131.334 C 81.256 143.923,81.280 149.073,81.309 142.779 C 81.339 136.484,81.339 126.184,81.309 119.890 C 81.280 113.596,81.256 118.746,81.256 131.334 M41.825 155.922 C 41.825 156.307,41.867 156.464,41.917 156.272 C 41.967 156.079,41.967 155.765,41.917 155.572 C 41.867 155.380,41.825 155.537,41.825 155.922 M157.071 169.865 C 165.565 169.894,179.463 169.894,187.956 169.865 C 196.449 169.836,189.500 169.813,172.514 169.813 C 155.527 169.813,148.578 169.836,157.071 169.865 M213.643 209.237 C 213.891 209.284,214.295 209.284,214.543 209.237 C 214.790 209.189,214.588 209.150,214.093 209.150 C 213.598 209.150,213.396 209.189,213.643 209.237 M156.072 334.979 C 156.539 335.021,157.304 335.021,157.771 334.979 C 158.238 334.937,157.856 334.902,156.922 334.902 C 155.987 334.902,155.605 334.937,156.072 334.979 M103.045 361.619 C 103.045 375.197,103.069 380.752,103.098 373.963 C 103.128 367.174,103.128 356.064,103.098 349.275 C 103.069 342.486,103.045 348.041,103.045 361.619 M245.877 337.381 C 245.877 337.464,246.588 337.531,247.457 337.531 C 248.326 337.531,248.996 337.464,248.945 337.381 C 248.894 337.299,248.183 337.231,247.365 337.231 C 246.546 337.231,245.877 337.299,245.877 337.381 M251.205 337.381 C 251.154 337.464,251.576 337.506,252.143 337.474 C 253.981 337.372,254.205 337.292,252.735 337.261 C 251.945 337.245,251.256 337.299,251.205 337.381 M284.388 337.381 C 284.337 337.464,284.759 337.506,285.326 337.474 C 287.164 337.372,287.388 337.292,285.919 337.261 C 285.128 337.245,284.440 337.299,284.388 337.381 M289.586 337.381 C 289.535 337.464,289.957 337.506,290.524 337.474 C 292.362 337.372,292.585 337.292,291.116 337.261 C 290.326 337.245,289.637 337.299,289.586 337.381 M307.596 337.378 C 308.063 337.420,308.828 337.420,309.295 337.378 C 309.763 337.336,309.380 337.301,308.446 337.301 C 307.511 337.301,307.129 337.336,307.596 337.378 M312.999 337.378 C 313.469 337.420,314.189 337.420,314.598 337.377 C 315.007 337.334,314.623 337.299,313.743 337.300 C 312.864 337.301,312.529 337.336,312.999 337.378 M336.482 337.377 C 336.894 337.420,337.569 337.420,337.981 337.377 C 338.393 337.334,338.056 337.299,337.231 337.299 C 336.407 337.299,336.069 337.334,336.482 337.377 M342.178 337.377 L 343.427 337.450 343.479 361.828 L 343.531 386.207 343.529 361.769 L 343.528 337.331 342.229 337.318 L 340.930 337.304 342.178 337.377 M66.720 339.375 C 67.080 339.420,67.619 339.419,67.920 339.373 C 68.220 339.328,67.926 339.291,67.266 339.292 C 66.607 339.293,66.361 339.331,66.720 339.375 M49.266 344.478 L 48.476 345.327 49.325 344.537 C 50.115 343.802,50.267 343.628,50.116 343.628 C 50.083 343.628,49.701 344.010,49.266 344.478 M139.519 344.578 L 138.831 345.327 139.580 344.638 C 140.278 343.997,140.422 343.828,140.269 343.828 C 140.236 343.828,139.898 344.165,139.519 344.578 M311.740 367.016 C 311.740 377.626,311.764 381.967,311.794 376.662 C 311.824 371.357,311.824 362.676,311.794 357.371 C 311.764 352.066,311.740 356.407,311.740 367.016 M314.538 369.515 C 314.538 378.751,314.563 382.500,314.593 377.846 C 314.623 373.193,314.623 365.636,314.593 361.054 C 314.563 356.473,314.538 360.280,314.538 369.515 M136.796 361.619 C 136.796 362.334,136.832 362.626,136.876 362.269 C 136.921 361.912,136.921 361.327,136.876 360.970 C 136.832 360.612,136.796 360.905,136.796 361.619 M48.240 362.419 C 48.240 363.133,48.276 363.426,48.321 363.068 C 48.365 362.711,48.365 362.126,48.321 361.769 C 48.276 361.412,48.240 361.704,48.240 362.419 M88.616 362.419 C 88.616 363.023,88.653 363.271,88.699 362.969 C 88.745 362.666,88.745 362.171,88.699 361.869 C 88.653 361.567,88.616 361.814,88.616 362.419 M171.002 375.862 L 170.415 376.512 171.064 375.925 C 171.422 375.602,171.714 375.309,171.714 375.275 C 171.714 375.121,171.549 375.256,171.002 375.862 M140.830 377.611 C 141.259 378.051,141.655 378.411,141.710 378.411 C 141.765 378.411,141.459 378.051,141.029 377.611 C 140.600 377.171,140.204 376.812,140.149 376.812 C 140.094 376.812,140.400 377.171,140.830 377.611 M83.547 378.761 L 82.859 379.510 83.608 378.821 C 84.306 378.180,84.450 378.011,84.297 378.011 C 84.264 378.011,83.926 378.348,83.547 378.761 M174.004 378.861 L 173.213 379.710 174.063 378.920 C 174.853 378.185,175.004 378.011,174.853 378.011 C 174.821 378.011,174.438 378.393,174.004 378.861 M126.774 380.757 L 126.737 382.005 118.191 382.059 L 109.645 382.113 118.197 382.161 C 127.792 382.215,127.007 382.357,126.885 380.586 L 126.811 379.510 126.774 380.757 M126.799 385.107 C 126.800 385.767,126.837 386.013,126.882 385.654 C 126.926 385.294,126.925 384.755,126.879 384.454 C 126.834 384.154,126.797 384.448,126.799 385.107 M156.572 388.544 C 156.764 388.594,157.079 388.594,157.271 388.544 C 157.464 388.493,157.306 388.452,156.922 388.452 C 156.537 388.452,156.379 388.493,156.572 388.544 " stroke="none" fill="#7cd774" fill-rule="evenodd"></path><path id="path5" d="M219.390 22.989 C 220.043 23.648,220.622 24.188,220.677 24.188 C 220.732 24.188,220.243 23.648,219.590 22.989 C 218.937 22.329,218.358 21.789,218.303 21.789 C 218.248 21.789,218.738 22.329,219.390 22.989 M224.388 27.986 C 225.041 28.646,225.620 29.185,225.675 29.185 C 225.730 29.185,225.240 28.646,224.588 27.986 C 223.935 27.326,223.356 26.787,223.301 26.787 C 223.246 26.787,223.735 27.326,224.388 27.986 M229.185 32.784 C 229.838 33.443,230.417 33.983,230.472 33.983 C 230.527 33.983,230.038 33.443,229.385 32.784 C 228.733 32.124,228.153 31.584,228.098 31.584 C 228.043 31.584,228.533 32.124,229.185 32.784 M203.196 131.734 C 203.196 152.679,203.220 161.247,203.248 150.775 C 203.277 140.302,203.277 123.166,203.248 112.694 C 203.220 102.221,203.196 110.790,203.196 131.734 M133.795 169.865 C 135.313 169.899,137.742 169.899,139.192 169.864 C 140.643 169.830,139.400 169.803,136.432 169.803 C 133.463 169.803,132.277 169.831,133.795 169.865 M54.973 186.207 C 55.570 186.812,56.103 187.306,56.158 187.306 C 56.213 187.306,55.770 186.812,55.172 186.207 C 54.575 185.602,54.042 185.107,53.987 185.107 C 53.932 185.107,54.375 185.602,54.973 186.207 M59.870 191.104 C 60.412 191.654,60.900 192.104,60.954 192.104 C 61.009 192.104,60.611 191.654,60.070 191.104 C 59.529 190.555,59.041 190.105,58.986 190.105 C 58.931 190.105,59.329 190.555,59.870 191.104 M338.727 356.422 C 338.727 366.922,338.751 371.217,338.781 365.967 C 338.810 360.717,338.810 352.126,338.781 346.877 C 338.751 341.627,338.727 345.922,338.727 356.422 M156.172 339.176 C 156.584 339.219,157.259 339.219,157.671 339.176 C 158.083 339.133,157.746 339.098,156.922 339.098 C 156.097 339.098,155.760 339.133,156.172 339.176 M157.371 341.767 C 157.564 341.817,157.879 341.817,158.071 341.767 C 158.263 341.717,158.106 341.676,157.721 341.676 C 157.336 341.676,157.179 341.717,157.371 341.767 M309.645 364.418 C 309.645 376.438,309.689 386.229,309.743 386.175 C 309.875 386.043,309.880 342.797,309.749 342.666 C 309.692 342.609,309.645 352.397,309.645 364.418 M52.061 347.276 L 51.474 347.926 52.124 347.339 C 52.730 346.792,52.865 346.627,52.711 346.627 C 52.677 346.627,52.384 346.919,52.061 347.276 M132.601 361.619 C 132.601 362.444,132.636 362.781,132.679 362.369 C 132.722 361.957,132.722 361.282,132.679 360.870 C 132.636 360.457,132.601 360.795,132.601 361.619 M130.001 361.719 C 130.002 362.489,130.038 362.779,130.081 362.364 C 130.124 361.950,130.123 361.320,130.079 360.965 C 130.035 360.610,130.000 360.950,130.001 361.719 M41.849 362.419 C 41.849 363.353,41.883 363.736,41.925 363.268 C 41.968 362.801,41.968 362.036,41.925 361.569 C 41.883 361.102,41.849 361.484,41.849 362.419 M44.238 362.419 C 44.238 363.023,44.275 363.271,44.321 362.969 C 44.367 362.666,44.367 362.171,44.321 361.869 C 44.275 361.567,44.238 361.814,44.238 362.419 M45.823 362.419 C 45.823 362.804,45.865 362.961,45.915 362.769 C 45.965 362.576,45.965 362.261,45.915 362.069 C 45.865 361.877,45.823 362.034,45.823 362.419 M80.549 375.962 L 79.860 376.712 80.610 376.023 C 81.307 375.382,81.451 375.212,81.299 375.212 C 81.265 375.212,80.928 375.550,80.549 375.962 M172.703 377.761 L 172.014 378.511 172.764 377.822 C 173.461 377.181,173.605 377.011,173.453 377.011 C 173.419 377.011,173.082 377.349,172.703 377.761 M156.474 381.751 C 156.723 381.798,157.083 381.797,157.274 381.747 C 157.465 381.697,157.261 381.657,156.822 381.660 C 156.382 381.662,156.225 381.703,156.474 381.751 M157.771 388.544 C 157.964 388.594,158.278 388.594,158.471 388.544 C 158.663 388.493,158.506 388.452,158.121 388.452 C 157.736 388.452,157.579 388.493,157.771 388.544 " stroke="none" fill="#c8edca" fill-rule="evenodd"></path><path id="path6" d="M302.149 112.544 C 320.839 131.234,336.176 146.527,336.231 146.527 C 336.286 146.527,321.039 131.234,302.349 112.544 C 283.658 93.853,268.321 78.561,268.266 78.561 C 268.211 78.561,283.459 93.853,302.149 112.544 M120.939 121.289 L 95.052 147.226 120.990 121.340 C 135.255 107.102,146.927 95.430,146.927 95.403 C 146.927 95.263,145.006 97.176,120.939 121.289 M343.900 166.517 C 343.900 167.561,343.934 167.989,343.975 167.466 C 344.016 166.944,344.016 166.089,343.975 165.567 C 343.934 165.045,343.900 165.472,343.900 166.517 M251.574 216.942 L 226.187 242.379 251.624 216.992 C 275.273 193.390,277.151 191.504,277.011 191.504 C 276.984 191.504,265.537 202.951,251.574 216.942 M186.206 224.838 C 200.701 239.379,201.899 240.569,201.899 240.429 C 201.899 240.402,194.860 233.363,186.257 224.787 L 170.615 209.195 186.206 224.838 " stroke="none" fill="#a4cdf1" fill-rule="evenodd"></path><path id="path7" d="M162.718 79.510 L 146.827 95.452 162.769 79.561 C 177.589 64.788,178.800 63.568,178.660 63.568 C 178.632 63.568,171.459 70.742,162.718 79.510 M173.213 123.188 L 143.428 153.023 173.263 123.239 C 201.001 95.547,203.188 93.353,203.048 93.353 C 203.021 93.353,189.595 106.779,173.213 123.188 M284.757 149.275 L 301.948 166.517 289.455 179.060 L 276.962 191.604 289.555 179.060 L 302.149 166.517 284.858 149.275 L 267.567 132.034 284.757 149.275 M87.016 166.717 C 87.016 167.321,87.054 167.569,87.100 167.266 C 87.146 166.964,87.146 166.469,87.100 166.167 C 87.054 165.865,87.016 166.112,87.016 166.717 M305.647 217.041 L 275.762 246.977 305.697 217.092 C 322.161 200.655,335.632 187.184,335.632 187.157 C 335.632 187.017,333.431 189.210,305.647 217.041 M155.022 247.876 C 167.336 260.190,177.456 270.265,177.511 270.265 C 177.566 270.265,167.536 260.190,155.222 247.876 C 142.909 235.562,132.789 225.487,132.734 225.487 C 132.679 225.487,142.709 235.562,155.022 247.876 M202.799 241.479 C 203.340 242.029,203.828 242.479,203.883 242.479 C 203.938 242.479,203.540 242.029,202.999 241.479 C 202.457 240.930,201.969 240.480,201.914 240.480 C 201.859 240.480,202.257 240.930,202.799 241.479 M208.946 282.808 C 210.677 282.841,213.511 282.841,215.242 282.808 C 216.974 282.775,215.557 282.748,212.094 282.748 C 208.631 282.748,207.214 282.775,208.946 282.808 " stroke="none" fill="#84b4ec" fill-rule="evenodd"></path><path id="path8" d="M260.570 70.965 C 264.747 75.142,268.209 78.561,268.264 78.561 C 268.319 78.561,264.946 75.142,260.770 70.965 C 256.593 66.787,253.130 63.368,253.075 63.368 C 253.020 63.368,256.393 66.787,260.570 70.965 M129.935 168.616 C 130.532 169.220,131.066 169.715,131.121 169.715 C 131.176 169.715,130.732 169.220,130.135 168.616 C 129.538 168.011,129.004 167.516,128.949 167.516 C 128.894 167.516,129.338 168.011,129.935 168.616 " stroke="none" fill="#e4ecfc" fill-rule="evenodd"></path></g></svg>